<?xml version="1.0" encoding="UTF-8" ?>
<!DOCTYPE svg PUBLIC "-//W3C//DTD SVG 1.1//EN" "http://www.w3.org/Graphics/SVG/1.1/DTD/svg11.dtd">
<svg width="205pt" height="66pt" viewBox="0 0 205 66" version="1.1" xmlns="http://www.w3.org/2000/svg">
<path fill="#fdfefe" d=" M 0.00 0.00 L 205.00 0.00 L 205.00 66.00 L 0.00 66.00 L 0.00 0.00 Z" />
<path fill="#e82628" d=" M 49.92 9.19 C 65.44 8.44 80.98 8.15 96.53 7.99 C 95.21 11.56 94.94 15.71 93.00 18.92 C 81.34 19.00 69.67 19.38 58.02 19.92 C 49.01 19.99 40.01 21.21 31.32 23.57 C 27.97 24.82 24.14 27.10 23.64 30.99 C 23.95 34.07 27.24 35.50 29.79 36.42 C 35.78 38.28 42.10 39.02 48.36 39.04 C 47.61 40.72 47.88 44.35 45.07 43.63 C 34.83 43.14 24.10 42.15 15.03 36.94 C 11.25 34.58 7.25 30.79 7.97 25.89 C 8.06 20.92 12.34 17.36 16.55 15.52 C 26.92 10.48 38.66 10.20 49.92 9.19 Z" />
<path fill="#29459c" d=" M 99.44 9.07 C 112.99 8.89 126.54 9.06 140.10 8.99 C 139.17 12.09 138.45 15.25 137.85 18.43 C 133.02 18.52 128.19 18.50 123.36 18.44 C 121.55 28.83 119.52 39.19 117.75 49.59 C 113.94 49.57 110.12 49.57 106.31 49.60 C 108.25 39.34 110.04 29.05 112.08 18.80 C 107.15 18.73 102.21 19.02 97.29 18.65 C 98.18 15.50 98.91 12.30 99.44 9.07 Z" />
<path fill="#29459c" d=" M 144.03 10.99 C 156.08 12.84 168.39 14.36 179.72 19.14 C 183.71 20.90 187.80 23.15 190.17 26.95 C 191.95 29.83 190.77 33.51 189.14 36.18 C 185.73 41.10 179.94 43.56 174.45 45.40 C 161.36 49.53 147.53 50.40 133.90 50.96 C 134.63 46.91 135.19 42.83 136.02 38.79 C 147.83 38.42 159.53 36.43 171.08 34.04 C 175.13 32.75 180.05 31.74 182.44 27.87 C 182.81 25.03 179.40 23.81 177.34 22.73 C 166.49 18.37 154.78 16.80 143.30 14.98 C 143.53 13.65 143.78 12.32 144.03 10.99 Z" />
<path fill="#e82628" d=" M 58.26 26.34 C 61.71 26.43 65.17 26.42 68.63 26.31 C 68.59 26.85 68.53 27.92 68.49 28.45 C 76.03 28.32 83.57 28.52 91.10 28.33 C 89.78 32.46 88.04 36.44 86.64 40.54 C 79.81 40.56 72.98 40.56 66.14 40.53 C 65.40 43.91 64.97 47.34 64.05 50.67 C 60.70 50.53 57.34 50.54 54.00 50.71 C 54.80 42.51 56.91 34.47 58.26 26.34 Z" />
</svg>
